<svg width="142" height="262" viewBox="0 0 142 262" fill="none" xmlns="http://www.w3.org/2000/svg">
<g id="football">
<g id="righthand">
<path id="Vector" d="M27.0261 92.5158C27.0261 92.5158 7.28601 86.3546 10.3163 96.4914C13.3466 106.628 29.9736 101.508 29.9736 101.508L27.0261 92.5158Z" fill="#FFB8B8"/>
<path id="Vector_2" d="M102.484 54.4678C102.484 54.4678 92.3678 40.6156 82.5392 54.9959C72.6911 69.4045 63.5351 81.2331 63.5351 81.2331L39.0766 89.2239L24.9265 90.4819L28.8245 103.087L69.9665 97.107C69.9665 97.107 115.771 69.8437 102.484 54.4678Z" fill="#2F2E41"/>
</g>
<g id="feet">
<path id="Vector_3" d="M72.1856 222.034C71.6733 219.981 67.4172 210.672 67.2401 212.247C67.0629 213.821 58.8666 216.388 55.793 213.308C55.793 213.308 51.6949 209.715 50.1581 213.308C48.6213 216.901 45.5477 223.061 45.5477 223.061C45.5477 223.061 31.7165 229.733 33.7655 233.326C34.18 234.053 35.3282 234.36 36.8958 234.387C36.859 234.482 36.8398 234.583 36.8391 234.684V235.048C36.8391 235.272 36.928 235.487 37.0861 235.646C37.2442 235.804 37.4586 235.893 37.6822 235.893H38.0452C38.2688 235.893 38.4832 235.804 38.6413 235.646C38.7994 235.487 38.8882 235.272 38.8882 235.048V234.684C38.8874 234.553 38.8558 234.425 38.7961 234.308C39.2151 234.271 39.6497 234.223 40.0966 234.164C39.9783 234.311 39.9134 234.495 39.9127 234.684V235.048C39.9127 235.272 40.0016 235.487 40.1597 235.646C40.3178 235.804 40.5322 235.893 40.7558 235.893H41.1188C41.3424 235.893 41.5568 235.804 41.7149 235.646C41.873 235.487 41.9618 235.272 41.9618 235.048V234.684C41.9614 234.534 41.9208 234.386 41.8441 234.257C41.7674 234.128 41.6575 234.021 41.5258 233.949C42.7049 233.752 43.9355 233.501 45.1591 233.223C45.0789 233.354 45.0361 233.504 45.0354 233.658V234.022C45.0354 234.246 45.1242 234.461 45.2823 234.619C45.4404 234.777 45.6549 234.866 45.8785 234.866H46.2415C46.465 234.866 46.6795 234.777 46.8376 234.619C46.9957 234.461 47.0845 234.246 47.0845 234.022V233.658C47.0844 233.495 47.0369 233.335 46.948 233.198C46.859 233.061 46.7323 232.953 46.5833 232.887C47.5011 232.663 48.4006 232.429 49.2567 232.197C49.1768 232.328 49.1342 232.478 49.1336 232.631V232.995C49.1336 233.219 49.2224 233.434 49.3805 233.592C49.5386 233.751 49.753 233.84 49.9766 233.84H50.3396C50.5632 233.84 50.7776 233.751 50.9357 233.592C51.0938 233.434 51.1826 233.219 51.1826 232.995V232.631C51.1822 232.452 51.1244 232.277 51.0178 232.132C50.9111 231.988 50.7612 231.882 50.5898 231.829C53.5982 230.98 55.793 230.247 55.793 230.247C55.793 230.247 58.3418 229.317 61.428 228.062V228.375C61.428 228.599 61.5168 228.814 61.6749 228.973C61.833 229.131 62.0474 229.22 62.271 229.22H62.634C62.8576 229.22 63.072 229.131 63.2301 228.973C63.3882 228.814 63.4771 228.599 63.4771 228.375V228.012C63.4767 227.884 63.4472 227.757 63.3907 227.642C63.3342 227.528 63.2522 227.427 63.151 227.349C63.7706 227.088 64.3956 226.82 65.0139 226.547V226.835C65.0139 227.06 65.1027 227.274 65.2608 227.433C65.4189 227.591 65.6333 227.68 65.8569 227.68H66.2199C66.4435 227.68 66.6579 227.591 66.816 227.433C66.9741 227.274 67.0629 227.06 67.0629 226.835V226.472C67.0629 226.336 67.03 226.202 66.9672 226.082C66.9044 225.961 66.8134 225.858 66.7021 225.78C67.3706 225.468 68.0143 225.156 68.608 224.85C68.6053 224.877 68.5997 224.904 68.5997 224.932V225.296C68.5997 225.52 68.6885 225.735 68.8466 225.893C69.0047 226.051 69.2192 226.14 69.4428 226.14H69.8058C70.0294 226.14 70.2438 226.051 70.4019 225.893C70.56 225.735 70.6488 225.52 70.6488 225.296V224.932C70.6488 224.737 70.5816 224.548 70.4587 224.398C70.3357 224.247 70.1646 224.143 69.9742 224.104C71.4065 223.271 72.3097 222.531 72.1856 222.034Z" fill="#2F2E41"/>
</g>
<g id="left hand">
<path id="Vector_4" d="M115.472 116.552C115.472 116.552 100.104 130.411 110.35 132.977C120.595 135.544 124.693 118.605 124.693 118.605L115.472 116.552Z" fill="#FFB8B8"/>
<g id="Group 3">
<path id="Vector_5" d="M129.531 42.5697C124.453 32.3418 109.002 37.9201 111.513 49.0633C111.55 49.2294 111.589 49.3972 111.63 49.5665C114.276 60.1148 118.601 70.1672 124.437 79.3377L118.802 104.489L112.655 117.322L125.461 120.401L141.342 81.9042C141.342 81.9042 136.961 57.5364 129.531 42.5697Z" fill="#2F2E41"/>
</g>
</g>
<g id="Group 5">
<g id="Group 4">
<path id="Vector_6" d="M78.7432 257.335C75.4644 257.332 72.239 258.167 69.3721 259.761H88.0903C85.2319 258.167 82.0144 257.332 78.7432 257.335V257.335Z" fill="#E6E6E6"/>
<path id="Vector_7" d="M57.3298 131.181C57.3298 131.181 41.9618 141.96 42.9863 151.712C44.0109 161.465 50.6703 188.156 50.6703 188.156L64.5016 186.103C64.5016 186.103 66.0384 165.571 60.9157 157.872L85.5045 144.013L57.3298 131.181Z" fill="#FFB8B8"/>
<path id="Vector_8" d="M91.3956 156.589C91.3956 156.589 90.3711 175.581 92.9324 183.28C95.4938 190.98 98.0551 219.724 98.0551 219.724H112.399C112.399 219.724 119.058 194.573 110.862 183.28C110.862 183.28 108.3 168.395 115.472 161.208L91.3956 156.589Z" fill="#FFB8B8"/>
<path id="Vector_9" d="M88.0659 103.976C88.0659 103.976 54.7685 125.021 54.7685 131.694L81.4064 153.766L90.6272 143.5L89.6027 158.899L118.29 164.545C118.29 164.545 128.535 125.534 128.023 123.994C127.511 122.455 125.974 99.8695 125.974 99.8695L88.0659 103.976Z" fill="#2F2E41"/>
<path id="Vector_10" d="M64.5016 183.537L49.6458 186.617L52.2853 197.489C53.5844 202.841 53.7324 208.408 52.7194 213.821V213.821C52.7194 213.821 68.0874 217.928 68.0874 215.874C68.0874 213.821 64.5016 205.608 65.5261 199.962C66.5506 194.316 64.5016 183.537 64.5016 183.537Z" fill="#6C63FF"/>
<path id="Vector_11" d="M113.423 217.414L97.1945 216.388C97.1945 216.388 98.1781 233.326 96.211 238.973C94.2439 244.619 95.2274 246.672 95.2274 246.672L109.489 247.699L113.423 217.414Z" fill="#6C63FF"/>
<path id="Vector_12" d="M113.623 254.851C113.549 252.736 111.324 242.743 110.823 244.246C110.322 245.749 101.772 246.546 99.4063 242.892C99.4063 242.892 96.1459 238.522 93.8952 241.715C91.6445 244.908 87.3567 250.29 87.3567 250.29C87.3567 250.29 72.441 253.926 73.6973 257.869C73.9514 258.666 75.0107 259.206 76.5382 259.56C76.4824 259.645 76.4427 259.739 76.4208 259.839L76.3451 260.195C76.2985 260.414 76.3406 260.643 76.4623 260.831C76.584 261.018 76.7752 261.15 76.9938 261.197L77.3488 261.273C77.5675 261.32 77.7957 261.277 77.9833 261.155C78.1709 261.034 78.3025 260.842 78.3491 260.623L78.4248 260.267C78.4513 260.139 78.4473 260.006 78.4131 259.88C78.8305 259.931 79.2657 259.974 79.715 260.01C79.5685 260.13 79.4669 260.296 79.4268 260.481L79.3511 260.837C79.3045 261.056 79.3467 261.285 79.4683 261.473C79.59 261.661 79.7812 261.792 79.9999 261.839L80.3549 261.915C80.5735 261.962 80.8018 261.919 80.9894 261.798C81.1769 261.676 81.3085 261.484 81.3551 261.265L81.4308 260.909C81.4618 260.762 81.4527 260.609 81.4046 260.467C81.3565 260.324 81.2712 260.197 81.1574 260.099C82.3517 260.152 83.6074 260.164 84.862 260.148C84.7563 260.259 84.6831 260.397 84.6505 260.547L84.5748 260.903C84.5282 261.122 84.5704 261.351 84.692 261.539C84.8137 261.727 85.0049 261.859 85.2235 261.905L85.5785 261.981C85.7972 262.028 86.0255 261.986 86.2131 261.864C86.4006 261.742 86.5322 261.55 86.5788 261.331L86.6545 260.975C86.6884 260.816 86.6752 260.65 86.6167 260.497C86.5582 260.345 86.4568 260.213 86.3248 260.117C87.269 260.089 88.1974 260.049 89.083 260.001C88.9776 260.112 88.9047 260.25 88.8722 260.4L88.7965 260.755C88.7499 260.974 88.792 261.203 88.9137 261.391C89.0353 261.579 89.2265 261.711 89.4452 261.758L89.8002 261.833C90.0189 261.88 90.2471 261.838 90.4347 261.716C90.6223 261.594 90.7539 261.403 90.8005 261.183L90.8762 260.828C90.9131 260.652 90.893 260.469 90.8188 260.305C90.7445 260.142 90.62 260.006 90.4634 259.919C93.5824 259.717 95.8815 259.459 95.8815 259.459C95.8815 259.459 98.5676 259.082 101.847 258.499L101.782 258.806C101.735 259.025 101.778 259.254 101.899 259.442C102.021 259.629 102.212 259.761 102.431 259.808L102.786 259.884C103.004 259.931 103.233 259.888 103.42 259.766C103.608 259.645 103.739 259.453 103.786 259.234L103.862 258.878C103.888 258.753 103.885 258.623 103.854 258.499C103.823 258.375 103.763 258.26 103.681 258.162C104.341 258.036 105.008 257.904 105.67 257.766L105.609 258.049C105.563 258.268 105.605 258.497 105.727 258.685C105.848 258.873 106.039 259.004 106.258 259.051L106.613 259.127C106.832 259.174 107.06 259.131 107.248 259.01C107.435 258.888 107.567 258.696 107.613 258.477L107.689 258.121C107.717 257.988 107.713 257.851 107.677 257.72C107.64 257.589 107.573 257.469 107.48 257.37C108.199 257.204 108.894 257.033 109.538 256.858C109.529 256.884 109.518 256.909 109.513 256.936L109.437 257.292C109.39 257.511 109.432 257.74 109.554 257.928C109.676 258.116 109.867 258.248 110.086 258.294L110.441 258.37C110.659 258.417 110.888 258.375 111.075 258.253C111.263 258.131 111.394 257.939 111.441 257.72L111.517 257.364C111.557 257.174 111.531 256.975 111.442 256.802C111.353 256.629 111.207 256.492 111.029 256.414C112.604 255.898 113.641 255.364 113.623 254.851Z" fill="#2F2E41"/>
<path id="Vector_13" d="M88.0659 37.2474C96.2705 37.2474 102.922 30.5829 102.922 22.3619C102.922 14.1408 96.2705 7.47629 88.0659 7.47629C79.8613 7.47629 73.2101 14.1408 73.2101 22.3619C73.2101 30.5829 79.8613 37.2474 88.0659 37.2474Z" fill="#FFB8B8"/>
<path id="Vector_14" d="M101.385 20.822C101.385 20.822 109.581 31.0879 113.679 30.5746L95.7499 44.4336C95.7499 44.4336 93.7009 35.7076 91.1395 34.681C88.5782 33.6544 101.385 20.822 101.385 20.822Z" fill="#FFB8B8"/>
<path id="Vector_15" d="M133.402 97.0464C133.402 97.0464 133.4 40.4061 123.918 35.527C114.441 30.6507 108.172 27.8675 108.172 27.8675C108.032 29.726 107.505 31.5345 106.625 33.1761C105.744 34.8178 104.53 36.256 103.06 37.3979C99.9173 39.8288 96.7867 41.8444 95.0378 41.8508L94.9815 41.6105L94.7682 41.0002L89.6027 49.0533C89.6027 49.0533 84.9923 50.0798 83.4555 53.1596C82.6241 54.8258 86.5447 71.5988 84.2239 86.7805C82.2549 99.661 73.9575 111.288 73.7224 112.702C73.3249 115.092 83.4096 108.831 87.9508 105.904C88.0181 105.979 88.0659 106.029 88.0659 106.029C88.0659 106.029 85.5046 107.056 90.6272 105.516C93.5298 104.643 97.5824 104.595 100.551 104.717C100.547 105.608 100.568 106.317 100.616 106.799C101.129 111.932 126.742 119.118 130.328 117.578C133.914 116.038 133.402 97.0464 133.402 97.0464Z" fill="#2F2E41"/>
<path id="Vector_16" d="M99.4056 232.325C99.4056 232.325 103.448 228.564 105.758 230.589C108.068 232.614 109.511 234.061 109.511 234.061C109.511 234.061 102.87 230.01 99.4056 232.325Z" fill="#2F2E41"/>
<path id="Vector_17" d="M54.1195 197.341C54.1195 197.341 56.8944 192.564 59.6925 193.828C62.4906 195.092 64.2919 196.055 64.2919 196.055C64.2919 196.055 56.7621 194.117 54.1195 197.341Z" fill="#2F2E41"/>
<path id="Vector_18" opacity="0.2" d="M122.132 80.1075L112.399 117.065L120.595 99.6128L122.132 80.1075Z" fill="black"/>
</g>
<path id="Vector_19" d="M97.3958 5.01045C97.3958 5.01045 89.184 -3.65218 80.9184 1.80322C72.6529 7.25861 68.7319 12.558 69.5423 16.2479C70.3527 19.9377 72.7512 25.0702 72.7512 25.0702C72.7512 25.0702 71.2606 17.4258 78.1046 16.8601C84.9487 16.2944 94.4044 11.756 94.4044 11.756L100.8 25.4425C100.8 25.4425 101.705 22.2709 104.212 23.1806C106.718 24.0903 104.775 6.0251 97.3958 5.01045Z" fill="#2F2E41"/>
</g>
<g id="Ball">
<path id="Vector_20" d="M46.5241 201.612C46.5235 202.912 46.4156 204.21 46.2013 205.492V205.497C45.6131 208.947 44.2505 212.217 42.2164 215.062C40.1822 217.907 37.5298 220.251 34.4592 221.919C31.3886 223.586 27.98 224.533 24.4909 224.687C21.0018 224.842 17.5232 224.2 14.3178 222.811H14.3127C13.3642 222.401 12.4451 221.926 11.5618 221.389C8.82419 219.733 6.45982 217.525 4.61857 214.905C2.77732 212.285 1.49934 209.31 0.86564 206.17C0.568592 204.669 0.419321 203.142 0.41997 201.612C0.41997 200.914 0.450702 200.221 0.512174 199.538V199.533C1.04372 193.639 3.81298 188.174 8.24855 184.266C12.6841 180.358 18.4475 178.305 24.3496 178.531C30.2517 178.757 35.8421 181.244 39.9672 185.48C44.0924 189.715 46.4376 195.376 46.5189 201.293V201.299C46.5241 201.406 46.5241 201.504 46.5241 201.612Z" fill="#6C63FF"/>
<path id="Vector_21" d="M29.1465 193.897H18.8221L13.6597 184.94L17.1612 178.858L17.3659 178.803C21.7986 177.616 26.4802 177.747 30.8399 179.18L31.0255 179.242L34.3089 184.94L29.1465 193.897ZM19.4134 192.87H28.5552L33.1258 184.94L30.3344 180.095C26.2833 178.808 21.9532 178.685 17.8358 179.74L14.8428 184.94L19.4134 192.87Z" fill="white"/>
<path id="Vector_22" d="M28.6342 212.376H18.3098L13.1474 203.417L18.3098 194.458H28.6342L33.7967 203.417L28.6342 212.376ZM18.9011 211.349H28.0429L32.6136 203.417L28.0429 195.484H18.9011L14.3305 203.417L18.9011 211.349Z" fill="white"/>
<path id="Vector_23" d="M46.0513 203.136H35.7269L30.5645 194.179L35.7267 185.217H40.4279L40.5795 185.377C44.6564 189.674 46.9611 195.358 47.0313 201.287V201.436L46.0513 203.136ZM36.3182 202.109H45.46L46.0048 201.164C45.9059 195.617 43.762 190.302 39.9862 186.243H36.3185L31.7476 194.179L36.3182 202.109Z" fill="white"/>
<path id="Vector_24" d="M35.5846 221.877L30.5645 213.171L35.7267 204.209H46.0508L46.7137 205.354L46.7064 205.583C46.1467 208.852 44.9075 211.966 43.0691 214.724C41.2307 217.482 38.8342 219.822 36.0351 221.592L35.5846 221.877ZM31.7476 213.171L35.9353 220.433C38.4723 218.744 40.6421 216.558 42.3143 214.007C43.9865 211.456 45.1264 208.593 45.6656 205.589L45.4605 205.235H36.3185L31.7476 213.171Z" fill="white"/>
<path id="Vector_25" d="M11.7441 222.099L11.2969 221.828C8.49946 220.134 6.0833 217.877 4.20132 215.199C2.31935 212.521 1.0125 209.48 0.363444 206.27L0.325424 206.08L1.40499 204.209H11.7296L16.8918 213.171L11.7441 222.099ZM1.40674 206.257C2.02893 209.204 3.23173 211.997 4.94471 214.473C6.6577 216.948 8.84643 219.056 11.3827 220.674L15.7087 213.171L11.1378 205.235H1.9963L1.40674 206.257Z" fill="white"/>
<path id="Vector_26" d="M11.7294 202.109H1.40524L0 199.676V199.538C0.505784 193.721 3.15107 188.3 7.42213 184.328L7.56971 184.19H11.7296L16.8918 193.152L11.7294 202.109ZM1.99604 201.083H11.1381L15.7087 193.152L11.1378 185.217H7.97394C4.02183 188.954 1.55707 194.001 1.03706 199.422L1.99604 201.083Z" fill="white"/>
</g>
</g>
</svg>
